<mxfile host="app.diagrams.net" modified="2022-06-05T00:19:30.065Z" agent="5.0 (Macintosh)" etag="1BEEtK9MeOyMMm25gYE-" version="17.4.6" type="github">
  <diagram id="1nMxWi1Cagmed0x1KSgk" name="Page-1">
    <mxGraphModel dx="1586" dy="989" grid="0" gridSize="10" guides="1" tooltips="1" connect="1" arrows="1" fold="1" page="0" pageScale="1" pageWidth="827" pageHeight="1169" math="0" shadow="0">
      <root>
        <mxCell id="0" />
        <mxCell id="1" parent="0" />
        <mxCell id="NoWb64LZTavxdnZhKHVA-2" value="" style="edgeStyle=none;curved=1;rounded=0;orthogonalLoop=1;jettySize=auto;html=1;endArrow=open;startSize=14;endSize=14;sourcePerimeterSpacing=8;targetPerimeterSpacing=8;" parent="1" source="QDI_5LuDWtGU9XhJUdFM-2" target="QDI_5LuDWtGU9XhJUdFM-4" edge="1">
          <mxGeometry relative="1" as="geometry" />
        </mxCell>
        <mxCell id="QDI_5LuDWtGU9XhJUdFM-2" value="一体化可跨库api接口" style="ellipse;whiteSpace=wrap;html=1;hachureGap=4;" parent="1" vertex="1">
          <mxGeometry x="-28" y="216" width="160" height="100" as="geometry" />
        </mxCell>
        <mxCell id="QDI_5LuDWtGU9XhJUdFM-3" value="&lt;div&gt;一体化通用数据库CRUD接口&lt;/div&gt;&lt;div&gt;（PG、ES、Mongo）&lt;br&gt;&lt;/div&gt;" style="ellipse;whiteSpace=wrap;html=1;hachureGap=4;" parent="1" vertex="1">
          <mxGeometry x="-28" y="530" width="160" height="100" as="geometry" />
        </mxCell>
        <mxCell id="QDI_5LuDWtGU9XhJUdFM-7" value="" style="edgeStyle=none;curved=1;rounded=0;orthogonalLoop=1;jettySize=auto;html=1;endArrow=open;startSize=14;endSize=14;sourcePerimeterSpacing=8;targetPerimeterSpacing=8;" parent="1" source="QDI_5LuDWtGU9XhJUdFM-4" target="QDI_5LuDWtGU9XhJUdFM-3" edge="1">
          <mxGeometry relative="1" as="geometry" />
        </mxCell>
        <mxCell id="QDI_5LuDWtGU9XhJUdFM-4" value="可复用后端框架DRF" style="ellipse;whiteSpace=wrap;html=1;hachureGap=4;" parent="1" vertex="1">
          <mxGeometry x="-28" y="378" width="160" height="100" as="geometry" />
        </mxCell>
        <mxCell id="QDI_5LuDWtGU9XhJUdFM-5" value="可复用前端框架Quasar" style="ellipse;whiteSpace=wrap;html=1;hachureGap=4;" parent="1" vertex="1">
          <mxGeometry x="198" y="221" width="160" height="100" as="geometry" />
        </mxCell>
        <mxCell id="QDI_5LuDWtGU9XhJUdFM-10" value="远景规划：一站式开放数据库平台" style="shape=note;whiteSpace=wrap;html=1;backgroundOutline=1;fontColor=#000000;darkOpacity=0.05;fillColor=#FFF9B2;strokeColor=none;fillStyle=solid;direction=west;gradientDirection=north;gradientColor=#FFF2A1;shadow=1;size=20;pointerEvents=1;hachureGap=4;" parent="1" vertex="1">
          <mxGeometry x="491" y="470" width="304" height="68" as="geometry" />
        </mxCell>
        <mxCell id="NoWb64LZTavxdnZhKHVA-7" style="edgeStyle=none;curved=1;rounded=0;orthogonalLoop=1;jettySize=auto;html=1;exitX=0.75;exitY=1;exitDx=0;exitDy=0;entryX=0.5;entryY=0;entryDx=0;entryDy=0;endArrow=open;startSize=14;endSize=14;sourcePerimeterSpacing=8;targetPerimeterSpacing=8;" parent="1" source="NoWb64LZTavxdnZhKHVA-1" target="QDI_5LuDWtGU9XhJUdFM-5" edge="1">
          <mxGeometry relative="1" as="geometry" />
        </mxCell>
        <mxCell id="NoWb64LZTavxdnZhKHVA-8" style="edgeStyle=none;curved=1;rounded=0;orthogonalLoop=1;jettySize=auto;html=1;exitX=0.25;exitY=1;exitDx=0;exitDy=0;entryX=0.5;entryY=0;entryDx=0;entryDy=0;endArrow=open;startSize=14;endSize=14;sourcePerimeterSpacing=8;targetPerimeterSpacing=8;" parent="1" source="NoWb64LZTavxdnZhKHVA-1" target="QDI_5LuDWtGU9XhJUdFM-2" edge="1">
          <mxGeometry relative="1" as="geometry" />
        </mxCell>
        <mxCell id="NoWb64LZTavxdnZhKHVA-1" value="可复用原型设计" style="rounded=0;whiteSpace=wrap;html=1;hachureGap=4;" parent="1" vertex="1">
          <mxGeometry x="103" y="85" width="160" height="80" as="geometry" />
        </mxCell>
        <mxCell id="NoWb64LZTavxdnZhKHVA-10" value="近期目标：一体化数据库门户" style="shape=note;whiteSpace=wrap;html=1;backgroundOutline=1;fontColor=#000000;darkOpacity=0.05;fillColor=#FFF9B2;strokeColor=none;fillStyle=solid;direction=west;gradientDirection=north;gradientColor=#FFF2A1;shadow=1;size=20;pointerEvents=1;hachureGap=4;" parent="1" vertex="1">
          <mxGeometry x="491" y="149" width="306" height="74" as="geometry" />
        </mxCell>
        <mxCell id="NoWb64LZTavxdnZhKHVA-17" style="edgeStyle=none;curved=1;rounded=0;orthogonalLoop=1;jettySize=auto;html=1;exitX=1;exitY=0.5;exitDx=0;exitDy=0;entryX=0;entryY=0.5;entryDx=0;entryDy=0;endArrow=open;startSize=14;endSize=14;sourcePerimeterSpacing=8;targetPerimeterSpacing=8;" parent="1" source="NoWb64LZTavxdnZhKHVA-11" target="NoWb64LZTavxdnZhKHVA-12" edge="1">
          <mxGeometry relative="1" as="geometry" />
        </mxCell>
        <mxCell id="NoWb64LZTavxdnZhKHVA-11" value="整合资源" style="rounded=0;whiteSpace=wrap;html=1;hachureGap=4;" parent="1" vertex="1">
          <mxGeometry x="463" y="569" width="83" height="45" as="geometry" />
        </mxCell>
        <mxCell id="w3kBxS5y6PVgOfFdnVuS-40" style="edgeStyle=orthogonalEdgeStyle;rounded=0;orthogonalLoop=1;jettySize=auto;html=1;entryX=1;entryY=0.5;entryDx=0;entryDy=0;fontSize=12;" edge="1" parent="1" source="NoWb64LZTavxdnZhKHVA-12" target="NoWb64LZTavxdnZhKHVA-13">
          <mxGeometry relative="1" as="geometry" />
        </mxCell>
        <mxCell id="NoWb64LZTavxdnZhKHVA-12" value="有序互联" style="rounded=0;whiteSpace=wrap;html=1;hachureGap=4;" parent="1" vertex="1">
          <mxGeometry x="619" y="567" width="86" height="49" as="geometry" />
        </mxCell>
        <mxCell id="w3kBxS5y6PVgOfFdnVuS-45" style="edgeStyle=orthogonalEdgeStyle;rounded=0;orthogonalLoop=1;jettySize=auto;html=1;entryX=0.5;entryY=1;entryDx=0;entryDy=0;fontSize=12;" edge="1" parent="1" source="NoWb64LZTavxdnZhKHVA-13" target="NoWb64LZTavxdnZhKHVA-11">
          <mxGeometry relative="1" as="geometry" />
        </mxCell>
        <mxCell id="NoWb64LZTavxdnZhKHVA-13" value="有效共享" style="rounded=0;whiteSpace=wrap;html=1;hachureGap=4;" parent="1" vertex="1">
          <mxGeometry x="553" y="660" width="83" height="45" as="geometry" />
        </mxCell>
        <mxCell id="NoWb64LZTavxdnZhKHVA-20" value="反哺平台" style="rounded=0;whiteSpace=wrap;html=1;hachureGap=4;" parent="1" vertex="1">
          <mxGeometry x="765" y="87" width="83" height="45" as="geometry" />
        </mxCell>
        <mxCell id="NoWb64LZTavxdnZhKHVA-21" style="edgeStyle=none;curved=1;rounded=0;orthogonalLoop=1;jettySize=auto;html=1;exitX=1;exitY=0.5;exitDx=0;exitDy=0;entryX=0;entryY=0.5;entryDx=0;entryDy=0;endArrow=open;startSize=14;endSize=14;sourcePerimeterSpacing=8;targetPerimeterSpacing=8;" parent="1" source="NoWb64LZTavxdnZhKHVA-22" target="NoWb64LZTavxdnZhKHVA-23" edge="1">
          <mxGeometry relative="1" as="geometry" />
        </mxCell>
        <mxCell id="NoWb64LZTavxdnZhKHVA-22" value="汇交共享" style="rounded=0;whiteSpace=wrap;html=1;hachureGap=4;" parent="1" vertex="1">
          <mxGeometry x="435" y="86" width="83.5" height="47" as="geometry" />
        </mxCell>
        <mxCell id="NoWb64LZTavxdnZhKHVA-27" style="edgeStyle=none;curved=1;rounded=0;orthogonalLoop=1;jettySize=auto;html=1;exitX=1;exitY=0.5;exitDx=0;exitDy=0;entryX=0;entryY=0.5;entryDx=0;entryDy=0;endArrow=open;startSize=14;endSize=14;sourcePerimeterSpacing=8;targetPerimeterSpacing=8;" parent="1" source="NoWb64LZTavxdnZhKHVA-23" target="NoWb64LZTavxdnZhKHVA-20" edge="1">
          <mxGeometry relative="1" as="geometry" />
        </mxCell>
        <mxCell id="NoWb64LZTavxdnZhKHVA-23" value="可视化网站" style="rounded=0;whiteSpace=wrap;html=1;hachureGap=4;" parent="1" vertex="1">
          <mxGeometry x="606" y="87" width="83" height="45" as="geometry" />
        </mxCell>
        <mxCell id="NoWb64LZTavxdnZhKHVA-24" value="" style="html=1;shadow=0;dashed=0;align=center;verticalAlign=middle;shape=mxgraph.arrows2.stripedArrow;dy=0.6;dx=40;notch=25;hachureGap=4;rotation=90;" parent="1" vertex="1">
          <mxGeometry x="583" y="338" width="122" height="34" as="geometry" />
        </mxCell>
        <mxCell id="NoWb64LZTavxdnZhKHVA-25" value="打破子库围墙，重置建库流程" style="swimlane;hachureGap=4;" parent="1" vertex="1">
          <mxGeometry x="-68" y="35" width="471" height="618" as="geometry" />
        </mxCell>
        <mxCell id="NoWb64LZTavxdnZhKHVA-28" value="通用数据库安全方案" style="shape=callout;whiteSpace=wrap;html=1;perimeter=calloutPerimeter;hachureGap=4;rotation=90;" parent="NoWb64LZTavxdnZhKHVA-25" vertex="1">
          <mxGeometry x="195" y="500" width="120" height="80" as="geometry" />
        </mxCell>
        <mxCell id="NoWb64LZTavxdnZhKHVA-31" value="自动生成" style="text;strokeColor=none;fillColor=none;html=1;align=center;verticalAlign=middle;whiteSpace=wrap;rounded=0;hachureGap=4;" parent="1" vertex="1">
          <mxGeometry x="527" y="73" width="60" height="30" as="geometry" />
        </mxCell>
        <mxCell id="NoWb64LZTavxdnZhKHVA-35" value="化零为整，不是简单做加法" style="rounded=0;whiteSpace=wrap;html=1;hachureGap=4;" parent="1" vertex="1">
          <mxGeometry x="622" y="1" width="83" height="45" as="geometry" />
        </mxCell>
        <mxCell id="NoWb64LZTavxdnZhKHVA-36" value="补充数据" style="text;strokeColor=none;fillColor=none;html=1;align=center;verticalAlign=middle;whiteSpace=wrap;rounded=0;hachureGap=4;" parent="1" vertex="1">
          <mxGeometry x="697" y="73" width="60" height="30" as="geometry" />
        </mxCell>
        <mxCell id="NoWb64LZTavxdnZhKHVA-37" value="" style="shape=actor;whiteSpace=wrap;html=1;hachureGap=4;" parent="1" vertex="1">
          <mxGeometry x="1258" y="40" width="40" height="60" as="geometry" />
        </mxCell>
        <mxCell id="NoWb64LZTavxdnZhKHVA-38" value="" style="verticalLabelPosition=bottom;verticalAlign=top;html=1;shape=mxgraph.basic.partConcEllipse;startAngle=0.25;endAngle=0.1;arcWidth=0.5;hachureGap=4;" parent="1" vertex="1">
          <mxGeometry x="1229" y="278" width="100" height="100" as="geometry" />
        </mxCell>
        <mxCell id="NoWb64LZTavxdnZhKHVA-41" value="" style="html=1;shadow=0;dashed=0;align=center;verticalAlign=middle;shape=mxgraph.arrows2.jumpInArrow;dy=15;dx=38;arrowHead=55;hachureGap=4;rotation=105;direction=east;" parent="1" vertex="1">
          <mxGeometry x="1302" y="142" width="132" height="92" as="geometry" />
        </mxCell>
        <mxCell id="NoWb64LZTavxdnZhKHVA-42" value="" style="html=1;shadow=0;dashed=0;align=center;verticalAlign=middle;shape=mxgraph.arrows2.jumpInArrow;dy=15;dx=38;arrowHead=55;hachureGap=4;rotation=105;direction=west;" parent="1" vertex="1">
          <mxGeometry x="1132" y="142" width="132" height="92" as="geometry" />
        </mxCell>
        <mxCell id="NoWb64LZTavxdnZhKHVA-45" value="3.补充数据&lt;br&gt;&lt;div&gt;反哺平台&lt;/div&gt;" style="text;strokeColor=none;fillColor=none;html=1;align=center;verticalAlign=middle;whiteSpace=wrap;rounded=0;hachureGap=4;" parent="1" vertex="1">
          <mxGeometry x="1355" y="164" width="68" height="30" as="geometry" />
        </mxCell>
        <mxCell id="NoWb64LZTavxdnZhKHVA-47" value="2.自动生成&lt;br&gt;&lt;div&gt;可视化专题库/数据集&lt;/div&gt;" style="text;strokeColor=none;fillColor=none;html=1;align=center;verticalAlign=middle;whiteSpace=wrap;rounded=0;hachureGap=4;" parent="1" vertex="1">
          <mxGeometry x="1145" y="178" width="76" height="30" as="geometry" />
        </mxCell>
        <mxCell id="NoWb64LZTavxdnZhKHVA-48" value="1.汇交" style="html=1;shadow=0;dashed=0;align=center;verticalAlign=middle;shape=mxgraph.arrows2.arrow;dy=0;dx=30;notch=30;hachureGap=4;direction=south;" parent="1" vertex="1">
          <mxGeometry x="1258" y="127" width="42" height="81" as="geometry" />
        </mxCell>
        <mxCell id="NoWb64LZTavxdnZhKHVA-49" value="CNSA" style="html=1;shadow=0;dashed=0;align=center;verticalAlign=middle;shape=mxgraph.arrows2.arrow;dy=0;dx=30;notch=30;hachureGap=4;direction=south;" parent="1" vertex="1">
          <mxGeometry x="1258" y="187" width="42" height="81" as="geometry" />
        </mxCell>
        <mxCell id="NoWb64LZTavxdnZhKHVA-50" value="近期目标：一体化数据库门户" style="shape=note;whiteSpace=wrap;html=1;backgroundOutline=1;fontColor=#000000;darkOpacity=0.05;fillColor=#FFF9B2;strokeColor=none;fillStyle=solid;direction=west;gradientDirection=north;gradientColor=#FFF2A1;shadow=1;size=20;pointerEvents=1;hachureGap=4;" parent="1" vertex="1">
          <mxGeometry x="1105" y="-55" width="306" height="74" as="geometry" />
        </mxCell>
        <mxCell id="NoWb64LZTavxdnZhKHVA-51" value="共享" style="text;html=1;align=center;verticalAlign=middle;resizable=0;points=[];autosize=1;strokeColor=none;fillColor=none;hachureGap=4;" parent="1" vertex="1">
          <mxGeometry x="1261" y="317" width="34" height="18" as="geometry" />
        </mxCell>
        <mxCell id="w3kBxS5y6PVgOfFdnVuS-1" value="Extract 抽取" style="rounded=0;whiteSpace=wrap;html=1;" vertex="1" parent="1">
          <mxGeometry x="15" y="759" width="120" height="60" as="geometry" />
        </mxCell>
        <mxCell id="w3kBxS5y6PVgOfFdnVuS-2" value="transform 转换" style="rounded=0;whiteSpace=wrap;html=1;" vertex="1" parent="1">
          <mxGeometry x="203" y="761" width="120" height="60" as="geometry" />
        </mxCell>
        <mxCell id="w3kBxS5y6PVgOfFdnVuS-3" value="load 载入" style="rounded=0;whiteSpace=wrap;html=1;" vertex="1" parent="1">
          <mxGeometry x="383" y="761" width="120" height="60" as="geometry" />
        </mxCell>
        <mxCell id="w3kBxS5y6PVgOfFdnVuS-4" value="&lt;div&gt;将分散、零乱、标准不统一的数据整合到一起，为生信的决策提供分析依据。&lt;/div&gt;&lt;div&gt;采用工具协助&lt;b&gt;ETL&lt;/b&gt;的开发，并运用其内置的&lt;a target=&quot;_blank&quot; href=&quot;https://baike.baidu.com/item/metadata&quot;&gt;metadata&lt;/a&gt;功能来存储来源与目的的对应（mapping）以及转换规则。&lt;/div&gt;&lt;div&gt;工具可以提供较强大的连接功能（connectivity）来连接来源端及目的端，开发人员不用去熟悉各种相异的平台及数据的结构，亦能进行开发。&lt;/div&gt;" style="shape=note;whiteSpace=wrap;html=1;backgroundOutline=1;fontColor=#000000;darkOpacity=0.05;fillColor=#FFF9B2;strokeColor=none;fillStyle=solid;direction=west;gradientDirection=north;gradientColor=#FFF2A1;shadow=1;size=20;pointerEvents=1;hachureGap=4;" vertex="1" parent="1">
          <mxGeometry x="35" y="672" width="400" height="74" as="geometry" />
        </mxCell>
        <mxCell id="w3kBxS5y6PVgOfFdnVuS-6" value="&lt;div&gt;&lt;b&gt;Meta databases&lt;/b&gt;&lt;/div&gt;&lt;div&gt;元数据库，合并不同来源的相关数据以更新的或更加方便的形式提供新的数据&lt;b&gt;&lt;/b&gt;&lt;/div&gt;" style="ellipse;whiteSpace=wrap;html=1;" vertex="1" parent="1">
          <mxGeometry x="-171" y="1447" width="120" height="80" as="geometry" />
        </mxCell>
        <mxCell id="w3kBxS5y6PVgOfFdnVuS-7" value="&lt;b&gt;Model organism databases&lt;/b&gt;模式生物数据库，为深入研究模式生物提供生物数据" style="ellipse;whiteSpace=wrap;html=1;" vertex="1" parent="1">
          <mxGeometry x="17" y="1445" width="120" height="80" as="geometry" />
        </mxCell>
        <mxCell id="w3kBxS5y6PVgOfFdnVuS-8" value="&lt;b&gt;Nucleic acid databases&lt;/b&gt;" style="ellipse;whiteSpace=wrap;html=1;" vertex="1" parent="1">
          <mxGeometry x="187" y="1451" width="120" height="80" as="geometry" />
        </mxCell>
        <mxCell id="w3kBxS5y6PVgOfFdnVuS-9" value="&lt;b&gt;Amino acid / protein databases&lt;/b&gt;" style="ellipse;whiteSpace=wrap;html=1;" vertex="1" parent="1">
          <mxGeometry x="372.75" y="1440" width="120" height="80" as="geometry" />
        </mxCell>
        <mxCell id="w3kBxS5y6PVgOfFdnVuS-10" value="&lt;b&gt; Signal transduction pathway databases&lt;/b&gt;" style="ellipse;whiteSpace=wrap;html=1;" vertex="1" parent="1">
          <mxGeometry x="525" y="1453" width="120" height="80" as="geometry" />
        </mxCell>
        <mxCell id="w3kBxS5y6PVgOfFdnVuS-11" value="&lt;b&gt;Metabolic pathway and protein function databases&lt;/b&gt;" style="ellipse;whiteSpace=wrap;html=1;" vertex="1" parent="1">
          <mxGeometry x="677" y="1442" width="120" height="80" as="geometry" />
        </mxCell>
        <mxCell id="w3kBxS5y6PVgOfFdnVuS-24" value="" style="edgeStyle=orthogonalEdgeStyle;rounded=0;orthogonalLoop=1;jettySize=auto;html=1;fontSize=12;" edge="1" parent="1" target="w3kBxS5y6PVgOfFdnVuS-20">
          <mxGeometry relative="1" as="geometry">
            <mxPoint x="134" y="870" as="sourcePoint" />
          </mxGeometry>
        </mxCell>
        <mxCell id="w3kBxS5y6PVgOfFdnVuS-18" value="结果解读" style="shape=parallelogram;perimeter=parallelogramPerimeter;whiteSpace=wrap;html=1;fixedSize=1;fontSize=12;" vertex="1" parent="1">
          <mxGeometry x="378" y="840" width="120" height="60" as="geometry" />
        </mxCell>
        <mxCell id="w3kBxS5y6PVgOfFdnVuS-22" value="" style="edgeStyle=orthogonalEdgeStyle;rounded=0;orthogonalLoop=1;jettySize=auto;html=1;fontSize=12;" edge="1" parent="1" source="w3kBxS5y6PVgOfFdnVuS-19" target="w3kBxS5y6PVgOfFdnVuS-20">
          <mxGeometry relative="1" as="geometry" />
        </mxCell>
        <mxCell id="w3kBxS5y6PVgOfFdnVuS-19" value="下载参考基因组索引" style="shape=parallelogram;perimeter=parallelogramPerimeter;whiteSpace=wrap;html=1;fixedSize=1;fontSize=12;" vertex="1" parent="1">
          <mxGeometry x="-7" y="921" width="139" height="61" as="geometry" />
        </mxCell>
        <mxCell id="w3kBxS5y6PVgOfFdnVuS-23" value="" style="edgeStyle=orthogonalEdgeStyle;rounded=0;orthogonalLoop=1;jettySize=auto;html=1;fontSize=12;" edge="1" parent="1" source="w3kBxS5y6PVgOfFdnVuS-20" target="w3kBxS5y6PVgOfFdnVuS-18">
          <mxGeometry relative="1" as="geometry" />
        </mxCell>
        <mxCell id="w3kBxS5y6PVgOfFdnVuS-20" value="差异比较" style="shape=parallelogram;perimeter=parallelogramPerimeter;whiteSpace=wrap;html=1;fixedSize=1;fontSize=12;" vertex="1" parent="1">
          <mxGeometry x="187" y="840" width="120" height="60" as="geometry" />
        </mxCell>
        <mxCell id="w3kBxS5y6PVgOfFdnVuS-30" value="" style="edgeStyle=orthogonalEdgeStyle;rounded=0;orthogonalLoop=1;jettySize=auto;html=1;fontSize=12;" edge="1" parent="1" source="w3kBxS5y6PVgOfFdnVuS-25" target="w3kBxS5y6PVgOfFdnVuS-26">
          <mxGeometry relative="1" as="geometry" />
        </mxCell>
        <mxCell id="w3kBxS5y6PVgOfFdnVuS-25" value="pg数据库" style="shape=cylinder3;whiteSpace=wrap;html=1;boundedLbl=1;backgroundOutline=1;size=15;fontSize=12;" vertex="1" parent="1">
          <mxGeometry x="325" y="958" width="60" height="56" as="geometry" />
        </mxCell>
        <mxCell id="w3kBxS5y6PVgOfFdnVuS-31" value="" style="edgeStyle=orthogonalEdgeStyle;rounded=0;orthogonalLoop=1;jettySize=auto;html=1;fontSize=12;" edge="1" parent="1" source="w3kBxS5y6PVgOfFdnVuS-26" target="w3kBxS5y6PVgOfFdnVuS-28">
          <mxGeometry relative="1" as="geometry" />
        </mxCell>
        <mxCell id="w3kBxS5y6PVgOfFdnVuS-26" value="Chado模式" style="shape=card;whiteSpace=wrap;html=1;fontSize=12;" vertex="1" parent="1">
          <mxGeometry x="435" y="966" width="80" height="40" as="geometry" />
        </mxCell>
        <mxCell id="w3kBxS5y6PVgOfFdnVuS-28" value="vue+django" style="shape=card;whiteSpace=wrap;html=1;fontSize=12;" vertex="1" parent="1">
          <mxGeometry x="546" y="966" width="80" height="40" as="geometry" />
        </mxCell>
        <mxCell id="w3kBxS5y6PVgOfFdnVuS-60" value="Process Bar" style="swimlane;childLayout=stackLayout;horizontal=1;fillColor=none;horizontalStack=1;resizeParent=1;resizeParentMax=0;resizeLast=0;collapsible=0;strokeColor=none;stackBorder=10;stackSpacing=-12;resizable=1;align=center;points=[];fontColor=#000000;fontSize=12;" vertex="1" parent="1">
          <mxGeometry x="-196" y="803" width="338" height="112" as="geometry" />
        </mxCell>
        <mxCell id="w3kBxS5y6PVgOfFdnVuS-61" value="下机数据转换&#xa;+&#xa;样本注释文件&#xa;" style="shape=step;perimeter=stepPerimeter;fixedSize=1;points=[];fontSize=12;" vertex="1" parent="w3kBxS5y6PVgOfFdnVuS-60">
          <mxGeometry x="10" y="33" width="120" height="69" as="geometry" />
        </mxCell>
        <mxCell id="w3kBxS5y6PVgOfFdnVuS-62" value="清洗&#xa;toolkit&#xa;" style="shape=step;perimeter=stepPerimeter;fixedSize=1;points=[];fontSize=12;" vertex="1" parent="w3kBxS5y6PVgOfFdnVuS-60">
          <mxGeometry x="118" y="33" width="100" height="69" as="geometry" />
        </mxCell>
        <mxCell id="w3kBxS5y6PVgOfFdnVuS-63" value="分解&#xa;fasterq-dump" style="shape=step;perimeter=stepPerimeter;fixedSize=1;points=[];fontSize=12;" vertex="1" parent="w3kBxS5y6PVgOfFdnVuS-60">
          <mxGeometry x="206" y="33" width="122" height="69" as="geometry" />
        </mxCell>
        <mxCell id="w3kBxS5y6PVgOfFdnVuS-76" value="" style="group" vertex="1" connectable="0" parent="1">
          <mxGeometry x="208" y="1063" width="470" height="64" as="geometry" />
        </mxCell>
        <mxCell id="w3kBxS5y6PVgOfFdnVuS-75" value="" style="rounded=0;whiteSpace=wrap;html=1;fontSize=12;" vertex="1" parent="w3kBxS5y6PVgOfFdnVuS-76">
          <mxGeometry width="470" height="64" as="geometry" />
        </mxCell>
        <mxCell id="w3kBxS5y6PVgOfFdnVuS-71" value="&lt;span style=&quot;border-bottom: 1px dotted&quot;&gt;search&lt;br&gt;&lt;/span&gt;" style="ellipse;whiteSpace=wrap;html=1;align=center;fontSize=12;" vertex="1" parent="w3kBxS5y6PVgOfFdnVuS-76">
          <mxGeometry x="17" y="12" width="100" height="40" as="geometry" />
        </mxCell>
        <mxCell id="w3kBxS5y6PVgOfFdnVuS-72" value="&lt;span style=&quot;border-bottom: 1px dotted&quot;&gt;browse&lt;br&gt;&lt;/span&gt;" style="ellipse;whiteSpace=wrap;html=1;align=center;fontSize=12;" vertex="1" parent="w3kBxS5y6PVgOfFdnVuS-76">
          <mxGeometry x="128" y="12" width="100" height="40" as="geometry" />
        </mxCell>
        <mxCell id="w3kBxS5y6PVgOfFdnVuS-73" value="&lt;span style=&quot;border-bottom: 1px dotted&quot;&gt;download&lt;br&gt;&lt;/span&gt;" style="ellipse;whiteSpace=wrap;html=1;align=center;fontSize=12;" vertex="1" parent="w3kBxS5y6PVgOfFdnVuS-76">
          <mxGeometry x="350" y="12" width="100" height="40" as="geometry" />
        </mxCell>
        <mxCell id="w3kBxS5y6PVgOfFdnVuS-74" value="&lt;span style=&quot;border-bottom: 1px dotted&quot;&gt;analysis&lt;br&gt;&lt;/span&gt;" style="ellipse;whiteSpace=wrap;html=1;align=center;fontSize=12;" vertex="1" parent="w3kBxS5y6PVgOfFdnVuS-76">
          <mxGeometry x="239" y="12" width="100" height="40" as="geometry" />
        </mxCell>
        <mxCell id="w3kBxS5y6PVgOfFdnVuS-77" value="一站式分析展示平台" style="shape=note;whiteSpace=wrap;html=1;backgroundOutline=1;fontColor=#000000;darkOpacity=0.05;fillColor=#FFF9B2;strokeColor=none;fillStyle=solid;direction=west;gradientDirection=north;gradientColor=#FFF2A1;shadow=1;size=20;pointerEvents=1;hachureGap=4;" vertex="1" parent="1">
          <mxGeometry x="367.5" y="1036" width="151" height="27" as="geometry" />
        </mxCell>
      </root>
    </mxGraphModel>
  </diagram>
</mxfile>
